<svg width="69" height="76" viewBox="0 0 69 76" fill="none" xmlns="http://www.w3.org/2000/svg">
<path d="M38.7189 54.0208H34.9243V48.7431L25.8595 40.7569L16.7946 48.7431V54.0208H13V47.0764L25.8595 35.6875L38.7189 47.0764V54.0208ZM13 56.4514H38.7189V60.2014H13V56.4514Z" fill="#FF7300"/>
<path d="M11.1771 18.9842C10.9338 18.9502 10.9444 18.5269 11.189 18.5035C23.2907 17.3479 27.5288 12.833 29.4174 0.174231C29.4538 -0.0692962 29.8773 -0.0524653 29.8966 0.192996C30.9443 13.4852 35.775 17.3982 48.8312 18.5416C49.0706 18.5626 49.0857 18.9422 48.8487 18.9819C34.8881 21.3193 30.8763 25.9244 29.9169 37.0271C29.8956 37.2736 29.4534 37.288 29.4179 37.0432C27.6197 24.6486 23.0543 20.6441 11.1771 18.9842Z" fill="url(#paint0_linear_669_1552)"/>
<path d="M47.9559 14.0008C48.32 14.0152 48.9907 14.253 49.1268 14.9656L49.1463 15.114L49.2547 16.3162C49.8493 22.1753 51.2715 25.8276 53.7967 28.1931C56.5081 30.733 60.6854 31.9776 67.1717 32.5457C67.937 32.613 68.2525 33.2695 68.2703 33.7146C68.288 34.1599 68.0251 34.8405 67.2664 34.9676C60.3394 36.1274 56.104 37.8211 53.4627 40.4285C50.8468 43.011 49.638 46.6485 49.1658 52.1131C49.0921 52.9656 48.3182 53.2068 47.9578 53.2185C47.5977 53.2302 46.8051 53.0384 46.6815 52.1863C45.7938 46.0681 44.248 42.2351 41.6346 39.7068C39.0162 37.1738 35.1678 35.7956 29.2918 34.9744C28.4645 34.8588 28.2431 34.1014 28.2527 33.7146C28.2624 33.3278 28.5196 32.5867 29.3465 32.5076C35.3089 31.9382 39.109 30.5577 41.6727 27.951C44.2522 25.3281 45.7455 21.2996 46.6815 15.0261L46.7117 14.8777C46.899 14.1719 47.592 13.9864 47.9559 14.0008ZM48.1492 15.1931C48.1299 14.9478 47.7064 14.9304 47.6697 15.1736C45.7811 27.8323 41.5436 32.348 29.4422 33.5037C29.1977 33.527 29.1865 33.9498 29.4295 33.9842C41.3066 35.644 45.8724 39.6483 47.6707 52.0428C47.704 52.2724 48.0949 52.2741 48.1609 52.0701L48.1697 52.0271C49.1291 40.9244 53.1407 36.3187 67.1014 33.9812C67.3237 33.944 67.3241 33.6084 67.1258 33.5496L67.0838 33.5418C54.0278 32.3983 49.197 28.485 48.1492 15.1931Z" fill="white"/>
<path d="M40.0886 33.9979C39.9671 33.9801 39.9721 33.7625 40.0943 33.7499C45.0923 33.2337 46.8929 31.3187 47.7061 26.0875C47.7251 25.9659 47.9422 25.9732 47.9528 26.0959C48.4267 31.6053 50.4814 33.271 55.9168 33.7712C56.0365 33.7822 56.0433 33.9748 55.9249 33.9951C50.1309 34.9904 48.4017 36.9302 47.9643 41.5155C47.9525 41.6387 47.7236 41.6455 47.7049 41.5233C46.9242 36.4193 44.9902 34.7153 40.0886 33.9979Z" fill="url(#paint1_linear_669_1552)"/>
<path d="M29.9919 9.8442C30.2833 9.85406 30.9215 10.0444 31.0554 10.7133L31.0749 10.853L31.1218 11.3403C31.3804 13.7083 31.9635 15.0683 32.8816 15.9243C33.8786 16.8538 35.4629 17.3728 38.1345 17.6186C38.8499 17.6846 39.1217 18.305 39.1355 18.687C39.1491 19.0685 38.9235 19.7028 38.2194 19.8237C35.3785 20.3117 33.7489 21.0032 32.7605 21.9682C31.798 22.9079 31.2954 24.2552 31.0857 26.4536C31.0086 27.2613 30.2661 27.4463 29.9929 27.4545C29.7201 27.4627 28.9657 27.3222 28.8425 26.518C28.4649 24.0497 27.8342 22.6073 26.8728 21.6782C25.9065 20.7444 24.4526 20.1794 22.0691 19.8305C21.2914 19.7164 21.1186 18.9991 21.1257 18.6919C21.1329 18.3843 21.3379 17.6788 22.1169 17.5981L22.5573 17.5483C24.6986 17.2778 26.003 16.7232 26.8816 15.8295C27.8339 14.8606 28.4463 13.3319 28.8435 10.7768L28.8728 10.6391C29.0518 9.98127 29.7004 9.83441 29.9919 9.8442ZM30.0788 10.9389C30.0681 10.8164 29.8507 10.8095 29.8317 10.9311C29.0185 16.1619 27.218 18.077 22.2204 18.5932C22.0982 18.6058 22.093 18.8235 22.2146 18.8413C27.1159 19.5587 29.0501 21.2628 29.8308 26.3667C29.8473 26.4733 30.0236 26.4815 30.0759 26.3999L30.0896 26.3588C30.527 21.7736 32.2566 19.8336 38.0505 18.8383C38.1542 18.8205 38.1618 18.6708 38.0817 18.6264L38.0427 18.6147C32.6073 18.1145 30.5528 16.4483 30.0788 10.9389Z" fill="white"/>
<defs>
<linearGradient id="paint0_linear_669_1552" x1="29.7474" y1="-2.3135" x2="29.7474" y2="39.6865" gradientUnits="userSpaceOnUse">
<stop stop-color="#DB7500"/>
<stop offset="1" stop-color="#3902AF"/>
</linearGradient>
<linearGradient id="paint1_linear_669_1552" x1="47.8744" y1="24.8455" x2="47.8744" y2="42.8455" gradientUnits="userSpaceOnUse">
<stop stop-color="#DB7500"/>
<stop offset="1" stop-color="#3902AF"/>
</linearGradient>
</defs>
</svg>
