<svg width="69" height="76" viewBox="0 0 69 76" fill="none" xmlns="http://www.w3.org/2000/svg">
<path d="M38.7189 44.1771H34.9243V38.8993L25.8595 30.9132L16.7946 38.8993V44.1771H13V37.2326L25.8595 25.8438L38.7189 37.2326V44.1771ZM13 46.6076H38.7189V50.3576H13V46.6076Z" fill="#FF7300"/>
<path d="M29.4296 24.1405C29.1862 24.1065 29.1969 23.6831 29.4415 23.6598C41.5431 22.5041 45.7813 17.9893 47.6699 5.33048C47.7062 5.08695 48.1297 5.10378 48.1491 5.34925C49.1968 18.6414 54.0274 22.5544 67.0837 23.6979C67.323 23.7188 67.3381 24.0985 67.1011 24.1381C53.1405 26.4756 49.1287 31.0806 48.1693 42.1834C48.1481 42.4298 47.7059 42.4443 47.6704 42.1995C45.8721 29.8048 41.3067 25.8004 29.4296 24.1405Z" fill="url(#paint0_linear_669_1543)"/>
<path d="M47.9559 4.15701C48.32 4.17149 48.9907 4.40929 49.1268 5.12185L49.1463 5.27029L49.2547 6.47244C49.8493 12.3315 51.2715 15.9839 53.7967 18.3494C56.5081 20.8892 60.6854 22.1339 67.1717 22.7019C67.937 22.7692 68.2525 23.4257 68.2703 23.8709C68.288 24.3162 68.0251 24.9968 67.2664 25.1238C60.3394 26.2836 56.104 27.9774 53.4627 30.5847C50.8468 33.1672 49.638 36.8047 49.1658 42.2693C49.0921 43.1219 48.3182 43.3631 47.9578 43.3748C47.5977 43.3864 46.8051 43.1946 46.6815 42.3426C45.7938 36.2243 44.248 32.3914 41.6346 29.8631C39.0162 27.33 35.1678 25.9519 29.2918 25.1306C28.4645 25.015 28.2431 24.2576 28.2527 23.8709C28.2624 23.4841 28.5196 22.7429 29.3465 22.6638C35.3089 22.0945 39.109 20.714 41.6727 18.1072C44.2522 15.4843 45.7455 11.4559 46.6815 5.1824L46.7117 5.03396C46.899 4.32818 47.592 4.14266 47.9559 4.15701ZM48.1492 5.34939C48.1299 5.10404 47.7064 5.08668 47.6697 5.32986C45.7811 17.9885 41.5436 22.5043 29.4422 23.6599C29.1977 23.6833 29.1865 24.106 29.4295 24.1404C41.3066 25.8003 45.8724 29.8046 47.6707 42.199C47.704 42.4286 48.0949 42.4304 48.1609 42.2263L48.1697 42.1834C49.1291 31.0806 53.1407 26.4749 67.1014 24.1375C67.3237 24.1003 67.3241 23.7647 67.1258 23.7058L67.0838 23.698C54.0278 22.5546 49.197 18.6413 48.1492 5.34939Z" fill="white"/>
<path d="M22.2141 8.99787C22.0925 8.98007 22.0976 8.76248 22.2198 8.74986C27.2177 8.23365 29.0184 6.31871 29.8316 1.08753C29.8505 0.965882 30.0677 0.97323 30.0783 1.09589C30.5522 6.60528 32.6069 8.27103 38.0423 8.7712C38.1619 8.78221 38.1688 8.97479 38.0504 8.99513C32.2564 9.99038 30.5272 11.9302 30.0898 16.5155C30.078 16.6387 29.8491 16.6455 29.8304 16.5233C29.0497 11.4193 27.1157 9.71532 22.2141 8.99787Z" fill="url(#paint1_linear_669_1543)"/>
<path d="M29.9919 0.000448283C30.2833 0.0103144 30.9215 0.200685 31.0554 0.869589L31.0749 1.00924L31.1218 1.49654C31.3804 3.86458 31.9635 5.22459 32.8816 6.08053C33.8786 7.01008 35.4629 7.52903 38.1345 7.77486C38.8499 7.84088 39.1217 8.46122 39.1355 8.84322C39.1491 9.22478 38.9235 9.85901 38.2194 9.97994C35.3785 10.468 33.7489 11.1594 32.7605 12.1245C31.798 13.0641 31.2954 14.4115 31.0857 16.6098C31.0086 17.4176 30.2661 17.6026 29.9929 17.6108C29.7201 17.619 28.9657 17.4785 28.8425 16.6743C28.4649 14.206 27.8342 12.7636 26.8728 11.8344C25.9065 10.9007 24.4526 10.3357 22.0691 9.98678C21.2914 9.87269 21.1186 9.15538 21.1257 8.8481C21.1329 8.54053 21.3379 7.83501 22.1169 7.75435L22.5573 7.70455C24.6986 7.43404 26.003 6.87947 26.8816 5.9858C27.8339 5.01682 28.4463 3.48814 28.8435 0.933065L28.8728 0.79537C29.0518 0.137525 29.7004 -0.00933819 29.9919 0.000448283ZM30.0788 1.09517C30.0681 0.972666 29.8507 0.965764 29.8317 1.08736C29.0185 6.31813 27.218 8.23322 22.2204 8.74947C22.0982 8.76209 22.093 8.97972 22.2146 8.99752C27.1159 9.715 29.0501 11.4191 29.8308 16.5229C29.8473 16.6295 30.0236 16.6377 30.0759 16.5561L30.0896 16.5151C30.527 11.9298 32.2566 9.98984 38.0505 8.99459C38.1542 8.97678 38.1618 8.82704 38.0817 8.78267L38.0427 8.77096C32.6073 8.27079 30.5528 6.60456 30.0788 1.09517Z" fill="white"/>
<defs>
<linearGradient id="paint0_linear_669_1543" x1="47.9999" y1="2.84275" x2="47.9999" y2="44.8427" gradientUnits="userSpaceOnUse">
<stop stop-color="#DB7500"/>
<stop offset="1" stop-color="#3902AF"/>
</linearGradient>
<linearGradient id="paint1_linear_669_1543" x1="29.9998" y1="-0.154477" x2="29.9998" y2="17.8455" gradientUnits="userSpaceOnUse">
<stop stop-color="#DB7500"/>
<stop offset="1" stop-color="#3902AF"/>
</linearGradient>
</defs>
</svg>
