<svg width="69" height="76" viewBox="0 0 69 76" fill="none" xmlns="http://www.w3.org/2000/svg">
<path d="M38.7189 55.8646H34.9243V50.5868L25.8595 42.6007L16.7946 50.5868V55.8646H13V48.9201L25.8595 37.5312L38.7189 48.9201V55.8646ZM13 58.2951H38.7189V62.0451H13V58.2951Z" fill="#FF7300"/>
<path d="M11.1771 20.828C10.9338 20.794 10.9444 20.3706 11.189 20.3473C23.2907 19.1916 27.5288 14.6768 29.4174 2.01798C29.4538 1.77445 29.8773 1.79128 29.8966 2.03675C30.9443 15.3289 35.775 19.2419 48.8312 20.3854C49.0706 20.4063 49.0857 20.786 48.8487 20.8256C34.8881 23.1631 30.8763 27.7681 29.9169 38.8709C29.8956 39.1173 29.4534 39.1318 29.4179 38.887C27.6197 26.4923 23.0543 22.4879 11.1771 20.828Z" fill="url(#paint0_linear_669_1563)"/>
<path d="M29.7034 0.000758271C30.0675 0.015243 30.7383 0.253036 30.8743 0.965602L30.8939 1.11404L31.0023 2.31619C31.5969 8.17525 33.0191 11.8276 35.5442 14.1931C38.2556 16.733 42.4329 17.9776 48.9192 18.5457C49.6846 18.613 50.0001 19.2695 50.0179 19.7146C50.0356 20.1599 49.7727 20.8405 49.014 20.9676C42.087 22.1274 37.8516 23.8211 35.2103 26.4285C32.5943 29.011 31.3856 32.6485 30.9134 38.1131C30.8397 38.9656 30.0658 39.2068 29.7054 39.2185C29.3453 39.2302 28.5526 39.0384 28.429 38.1863C27.5413 32.0681 25.9955 28.2351 23.3821 25.7068C20.7638 23.1738 16.9154 21.7956 11.0394 20.9744C10.212 20.8588 9.99065 20.1014 10.0003 19.7146C10.01 19.3278 10.2671 18.5867 11.094 18.5076C17.0564 17.9382 20.8565 16.5577 23.4202 13.951C25.9997 11.3281 27.493 7.29965 28.429 1.02615L28.4593 0.877711C28.6466 0.171928 29.3396 -0.0135894 29.7034 0.000758271ZM29.8968 1.19314C29.8774 0.94779 29.454 0.930426 29.4173 1.17361C27.5287 13.8323 23.2911 18.348 11.1898 19.5037C10.9452 19.527 10.9341 19.9498 11.1771 19.9842C23.0541 21.644 27.62 25.6483 29.4183 38.0428C29.4516 38.2724 29.8425 38.2741 29.9085 38.0701L29.9173 38.0271C30.8767 26.9244 34.8883 22.3187 48.8489 19.9812C49.0712 19.944 49.0717 19.6084 48.8733 19.5496L48.8314 19.5418C35.7753 18.3983 30.9446 14.485 29.8968 1.19314Z" fill="white"/>
<path d="M40.0886 35.8416C39.9671 35.8238 39.9721 35.6062 40.0943 35.5936C45.0923 35.0774 46.8929 33.1625 47.7061 27.9313C47.7251 27.8096 47.9422 27.817 47.9528 27.9396C48.4267 33.449 50.4814 35.1148 55.9168 35.6149C56.0365 35.626 56.0433 35.8185 55.9249 35.8389C50.1309 36.8341 48.4017 38.774 47.9643 43.3593C47.9525 43.4824 47.7236 43.4893 47.7049 43.367C46.9242 38.2631 44.9902 36.5591 40.0886 35.8416Z" fill="url(#paint1_linear_669_1563)"/>
<path d="M47.8664 26.0004C48.1578 26.0103 48.796 26.2007 48.9299 26.8696L48.9494 27.0092L48.9963 27.4965C49.2549 29.8646 49.838 31.2246 50.7561 32.0805C51.7531 33.0101 53.3374 33.529 56.009 33.7749C56.7244 33.8409 56.9962 34.4612 57.01 34.8432C57.0236 35.2248 56.798 35.859 56.094 35.9799C53.2531 36.468 51.6235 37.1594 50.635 38.1245C49.6725 39.0641 49.1699 40.4115 48.9602 42.6098C48.8831 43.4176 48.1406 43.6026 47.8674 43.6108C47.5946 43.619 46.8403 43.4785 46.717 42.6743C46.3395 40.206 45.7087 38.7636 44.7473 37.8344C43.781 36.9007 42.3271 36.3357 39.9436 35.9868C39.1659 35.8727 38.9931 35.1554 39.0002 34.8481C39.0074 34.5405 39.2124 33.835 39.9914 33.7544L40.4318 33.7045C42.5732 33.434 43.8775 32.8795 44.7561 31.9858C45.7084 31.0168 46.3208 29.4881 46.718 26.9331L46.7473 26.7954C46.9263 26.1375 47.5749 25.9907 47.8664 26.0004ZM47.9533 27.0952C47.9426 26.9727 47.7252 26.9658 47.7063 27.0874C46.893 32.3181 45.0925 34.2332 40.0949 34.7495C39.9727 34.7621 39.9675 34.9797 40.0891 34.9975C44.9905 35.715 46.9246 37.4191 47.7053 42.5229C47.7218 42.6295 47.8981 42.6377 47.9504 42.5561L47.9641 42.5151C48.4015 37.9298 50.1311 35.9898 55.925 34.9946C56.0287 34.9768 56.0363 34.827 55.9563 34.7827L55.9172 34.771C50.4818 34.2708 48.4273 32.6046 47.9533 27.0952Z" fill="white"/>
<defs>
<linearGradient id="paint0_linear_669_1563" x1="29.7474" y1="-0.469751" x2="29.7474" y2="41.5302" gradientUnits="userSpaceOnUse">
<stop stop-color="#DB7500"/>
<stop offset="1" stop-color="#3902AF"/>
</linearGradient>
<linearGradient id="paint1_linear_669_1563" x1="47.8744" y1="26.6893" x2="47.8744" y2="44.6893" gradientUnits="userSpaceOnUse">
<stop stop-color="#DB7500"/>
<stop offset="1" stop-color="#3902AF"/>
</linearGradient>
</defs>
</svg>
