<svg width="130" height="35" viewBox="0 0 130 35" fill="none" xmlns="http://www.w3.org/2000/svg">
<path d="M10.8069 17.127L11.9487 7.99234L7.95231 5.99414L6.52502 6.2796L2.24316 11.9887V13.7015L5.60069 19.1252M10.8069 17.127L15.9451 22.8361V31.9708L14.8033 32.8271H12.8051V24.8343L9.09414 22.5507M5.60069 19.1252L4.52682 32.8271H7.09594L7.95231 31.9708L9.09414 22.5507L10.8069 17.127M8.52322 10.5615L5.60069 12.8451L8.52322 17.9833L7.95231 19.1252L5.95411 19.6961L5.60069 19.1252" stroke="#4A2C4A" stroke-width="1.75862" stroke-linejoin="bevel"/>
<circle cx="12.5194" cy="3.14003" r="2.26072" stroke="#4A2C4A" stroke-width="1.75862"/>
<path d="M18.6571 21.6882L22.1743 19.9296M16.8984 20.5158L17.4846 16.9985M18.0709 24.033L21.0019 25.7916" stroke="#4A2C4A" stroke-width="1.75862" stroke-linejoin="bevel"/>
<path fill-rule="evenodd" clip-rule="evenodd" d="M117.668 2.3892C116.875 2.3892 116.232 3.03209 116.232 3.82513C116.232 4.61817 116.875 5.26106 117.668 5.26106C118.461 5.26106 119.104 4.61817 119.104 3.82513C119.104 3.03209 118.461 2.3892 117.668 2.3892ZM114.686 3.82513C114.686 2.17856 116.021 0.84375 117.668 0.84375C119.314 0.84375 120.649 2.17856 120.649 3.82513C120.649 5.4717 119.314 6.80651 117.668 6.80651C116.021 6.80651 114.686 5.4717 114.686 3.82513ZM107.836 31.7083L128.442 28.5108L128.205 26.9837L107.599 30.1812L107.836 31.7083ZM120.418 34.1422L118.109 30.6783L115.8 34.1422H120.418ZM113.484 7.26302L112.723 7.53954L109.597 11.4791L109.489 11.6632L107.703 15.9662L107.696 16.5414L108.142 17.6949L108.508 18.1024L109.624 18.6791H110.334L111.45 18.1024L111.829 17.6592L113.101 13.825L113.895 13.1416V14.2819L113.235 18.6389L111.896 26.5139L112.047 27.1164L112.494 27.6931L113.105 27.9928H115.114L115.748 27.6618L116.418 26.7006L116.541 26.4118L117.705 20.6514L118.151 22.1873L118.59 25.5888L118.655 25.8155L119.102 26.7766L119.803 27.2238H121.94L122.572 26.896L123.113 26.1271L123.248 25.584L122.707 21.3543L122.697 21.2963L121.245 14.2612V13.0427L122.328 13.8904L124.485 17.7899L124.742 18.065L125.635 18.6417L126.359 18.7023L127.699 18.1256L128.152 17.5627L128.375 16.4093L128.288 15.8794L125.832 11.5764L125.717 11.4233L121.922 7.48369L121.196 7.26594L118.824 7.79977H116.086L113.484 7.26302ZM110.875 12.3552L113.638 8.8727L115.851 9.32929L116.007 9.34522H118.909L119.079 9.32637L121.111 8.86919L124.537 12.4261L126.804 16.3968L126.712 16.8678L126.127 17.1199L125.743 16.8721L123.604 13.0049L123.404 12.7704L120.949 10.848L119.7 11.4565V14.3401L119.716 14.4963L121.177 21.5798L121.677 25.4826L121.539 25.6784H120.296L120.107 25.2726L119.676 21.9303L119.652 21.8137L118.312 17.2004L116.813 17.2629L115.058 25.9487L114.711 26.4473H113.484L113.477 26.4384L114.76 18.8911L115.432 14.4558L115.44 14.3401V11.4565L114.163 10.8709L111.931 12.7933L111.702 13.1355L110.461 16.8738L109.979 17.1228L109.478 16.8638L109.249 16.2725L110.875 12.3552Z" fill="#4A2C4A"/>
<path d="M56.4584 23.2242L55.27 21.3148L52.7241 16.223L55.27 9.22168L57.1795 8.58521L59.0889 9.22168L60.7938 9.85816L60.8961 13.9833L60.7938 17.7718V20.0418H63.5443H65.4537L66.7267 21.9513V23.8607V27.0431V32.135L64.8172 33.4079H63.5443V23.2242H56.4584ZM60.7938 17.7718H64.9524H67.098L67.9996 18.1324L69.2726 19.6231V21.1377V24.167V27.1963V28.7109V29.589L67.6814 30.2255H66.0902M57.816 11.7676L55.9065 16.223L58.4524 20.0418V21.9513L56.4584 23.2242" stroke="#4A2C4A" stroke-width="1.5" stroke-linejoin="bevel"/>
<circle cx="58.3503" cy="4.03051" r="2.44408" stroke="#4A2C4A" stroke-width="1.5"/>
<path d="M75.3408 8.87207C76.5185 8.87207 77.4736 9.82722 77.4736 11.0049C77.4734 12.1823 76.5183 13.1367 75.3408 13.1367H67.0469C65.8696 13.1364 64.9153 12.1822 64.915 11.0049C64.915 9.82739 65.8694 8.87235 67.0469 8.87207H75.3408ZM75.3418 9.62207C74.8064 9.62207 74.3429 9.92696 74.1133 10.3721H67.0469C66.6979 10.3724 66.415 10.6558 66.415 11.0049C66.4153 11.3537 66.698 11.6364 67.0469 11.6367H74.1133C74.3429 12.0819 74.8064 12.3867 75.3418 12.3867C76.105 12.3866 76.7234 11.768 76.7236 11.0049C76.7236 10.2415 76.1051 9.62222 75.3418 9.62207Z" fill="#4A2C4A"/>
<path d="M75.3408 8.87183C76.5183 8.87183 77.4734 9.82623 77.4736 11.0037V19.2976C77.4736 20.4753 76.5185 21.4304 75.3408 21.4304C74.1634 21.4301 73.209 20.4751 73.209 19.2976V11.0037C73.2093 9.82641 74.1636 8.87211 75.3408 8.87183ZM75.3418 9.62183C74.5783 9.62183 73.959 10.2412 73.959 11.0046C73.9591 11.5398 74.264 12.0025 74.709 12.2322V19.2976C74.709 19.6467 74.9918 19.9301 75.3408 19.9304C75.6901 19.9304 75.9736 19.6468 75.9736 19.2976V12.2322C76.4186 12.0026 76.7236 11.5399 76.7236 11.0046C76.7236 10.2413 76.105 9.62207 75.3418 9.62183Z" fill="#4A2C4A"/>
<circle cx="1.38235" cy="1.38235" r="2.13235" transform="matrix(-1 0 0 1 76.7236 9.62207)" stroke="#4A2C4A" stroke-width="1.5"/>
</svg>
