<svg width="928" height="928" viewBox="0 0 928 928" fill="none" xmlns="http://www.w3.org/2000/svg">
<path d="M438 125.25C440.53 125.183 443.061 125.116 445.668 125.047C448.479 125.031 451.291 125.016 454.188 125C458.71 125.019 458.71 125.019 463.324 125.039C467.619 125.143 467.619 125.143 472 125.25C475.289 125.478 475.289 125.478 478.645 125.711C481.543 126.04 481.543 126.04 484.5 126.375C486.379 126.65 488.259 126.924 490.195 127.207C492.111 127.551 494.026 127.895 496 128.25C498.184 128.687 500.367 129.124 502.617 129.574C504.847 130.065 507.077 130.556 509.375 131.062C511.542 131.588 513.709 132.114 515.941 132.656C517.941 133.182 519.94 133.708 522 134.25C525.073 135.178 528.146 136.106 531.312 137.062C535.613 138.64 535.613 138.64 540 140.25C542.577 141.288 542.577 141.288 545.207 142.348C546.995 143.099 548.783 143.851 550.625 144.625C553.266 145.781 553.266 145.781 555.961 146.961C558.455 148.094 558.455 148.094 561 149.25C563.723 150.57 566.445 151.89 569.25 153.25C571.807 154.57 574.365 155.89 577 157.25C579.681 158.611 582.362 159.972 585.125 161.375C586.526 162.123 587.927 162.87 589.371 163.641C591.662 164.932 591.662 164.932 594 166.25C595.806 167.338 597.612 168.426 599.473 169.547C601.359 170.728 603.244 171.908 605.188 173.125C607.972 174.921 607.972 174.921 610.812 176.754C612.524 177.908 614.236 179.061 616 180.25C619.805 183.127 619.805 183.127 623.688 186.062C626.812 188.63 626.812 188.63 630 191.25C631.836 192.694 633.671 194.138 635.562 195.625C637.357 197.151 639.151 198.678 641 200.25C644.248 203.344 644.248 203.344 647.562 206.5C649.687 208.727 651.811 210.955 654 213.25C655.712 215.333 657.424 217.416 659.188 219.562C661.57 222.873 661.57 222.873 664 226.25C665.691 228.828 667.383 231.406 669.125 234.062C671.538 238.115 671.538 238.115 674 242.25C675.403 244.911 676.805 247.571 678.25 250.312C679.487 252.932 680.725 255.551 682 258.25C682.99 260.436 683.98 262.622 685 264.875C685.99 267.639 686.98 270.402 688 273.25C688.628 275.484 689.256 277.718 689.902 280.02C690.91 283.815 690.91 283.815 691.938 287.688C692.614 290.285 693.291 292.882 693.988 295.559C694.652 298.097 695.316 300.635 696 303.25C696.612 305.489 697.225 307.728 697.855 310.035C698.439 312.086 699.023 314.137 699.625 316.25C700.478 319.127 700.478 319.127 701.348 322.062C702.166 324.63 702.166 324.63 703 327.25C704.011 329.89 705.021 332.53 706.062 335.25C707.032 337.23 708.001 339.21 709 341.25C710.98 343.89 712.96 346.53 715 349.25C716.98 350.57 718.96 351.89 721 353.25C721.99 353.58 722.98 353.91 724 354.25C726.97 354.25 729.94 354.25 733 354.25C735.64 352.93 738.28 351.61 741 350.25C742.32 349.26 743.64 348.27 745 347.25C745.33 347.91 745.66 348.57 746 349.25C746.103 350.879 746.206 352.509 746.312 354.188C746.209 356.188 746.106 358.189 746 360.25C745.484 362.127 744.969 364.004 744.438 365.938C743.633 367.691 742.829 369.444 742 371.25C740.639 372.817 739.278 374.385 737.875 376C736.926 377.072 735.978 378.145 735 379.25C736.98 378.92 738.96 378.59 741 378.25C743.186 377.116 745.372 375.981 747.625 374.812C749.729 373.637 751.832 372.461 754 371.25C755.32 370.59 756.64 369.93 758 369.25C757.732 370.611 757.464 371.972 757.188 373.375C756.466 375.314 755.744 377.253 755 379.25C753.484 382.22 753.484 382.22 751.938 385.25C750.638 387.23 749.339 389.21 748 391.25C746.453 393.003 744.906 394.756 743.312 396.562C741.559 398.109 739.806 399.656 738 401.25C735.669 402.405 733.339 403.56 730.938 404.75C729.308 405.905 727.679 407.06 726 408.25C726.825 409.776 727.65 411.303 728.5 412.875C729.985 414.649 731.47 416.423 733 418.25C733.804 420.065 734.609 421.88 735.438 423.75C735.953 426.225 736.469 411.7 737 414.25C736.979 417.437 736.979 417.437 736.957 420.688C736.889 423.018 736.82 425.349 736.75 427.75C736.621 429.988 736.492 432.226 736.359 434.531C736.676 437.362 736.676 437.362 737 440.25C739.64 441.9 742.28 443.55 745 445.25C747.64 445.91 750.28 446.57 753 447.25C755.31 447.25 757.62 447.25 760 447.25C761.732 446.796 763.465 446.343 765.25 445.875C767.601 445.071 767.601 445.071 770 444.25C770.99 443.59 771.98 442.93 773 442.25C772.34 443.57 771.68 444.89 771 446.25C769.783 447.426 768.566 448.601 767.312 449.812C765.889 450.947 764.466 452.081 763 453.25C760.69 454.24 758.38 455.23 756 456.25C753.03 456.58 750.06 456.91 747 457.25C744.649 456.838 742.297 456.425 739.875 456C736.472 455.134 736.472 455.134 733 454.25C730.69 453.26 728.38 452.27 726 451.25C727.98 453.56 729.96 455.87 732 458.25C733.485 459.446 734.97 460.643 736.5 461.875C738.315 462.989 740.13 464.102 742 465.25C744.413 466.199 746.826 467.147 749.312 468.125C751.519 468.826 753.726 469.527 756 470.25C757.65 470.58 759.3 470.91 761 471.25C763.496 471.312 765.991 471.374 768.562 471.438C772.739 471.345 772.739 471.345 777 471.25C779.372 470.734 781.744 470.219 784.188 469.688C785.776 469.543 787.364 469.399 789 469.25C788.01 472.22 787.02 475.19 786 478.25C784.948 479.921 783.896 481.591 782.812 483.312C781.554 484.942 780.296 486.571 779 488.25C777.783 489.653 776.566 491.055 775.312 492.5C773.178 494.356 773.178 494.356 771 496.25C769.02 497.384 767.04 498.519 765 499.688C763.02 500.533 761.04 501.379 759 502.25C756.36 502.58 753.72 502.91 751 503.25C752.32 504.57 753.64 505.89 755 507.25C756.691 507.951 758.383 508.652 760.125 509.375C762.064 509.994 764.003 510.613 766 511.25C767.506 511.642 769.011 512.034 770.562 512.438C772.357 512.706 774.151 512.974 776 513.25C777.609 513.2 779.217 513.149 780.875 513.098C782.587 513.065 784.299 513.033 786.062 513C788.682 513.412 791.301 513.825 794 514.25C793.381 516.374 792.762 518.499 792.125 520.688C790.434 523.183 788.742 525.679 787 528.25C785.701 530.024 784.401 531.798 783.062 533.625C781.722 535.151 780.381 536.678 779 538.25C777.763 539.632 776.525 541.014 775.25 542.438C773.847 543.696 772.445 544.954 771 546.25C768.061 548.137 768.061 548.137 765.062 550.062C762.062 551.64 762.062 551.64 759 553.25C754.545 554.735 754.545 554.735 750 556.25C748.35 556.58 746.7 556.91 745 557.25C747.805 557.167 750.61 557.085 753.5 557C756.305 557.083 759.11 557.165 762 557.25C759.525 559.725 759.525 559.725 757 562.25C753.349 564.447 753.349 564.447 749.625 566.688C746.779 568.193 743.932 569.699 741 571.25C738.608 572.343 736.215 573.436 733.75 574.562C731.193 575.449 728.635 576.336 726 577.25C724.42 577.664 722.839 578.078 721.211 578.504C719.533 578.874 717.854 579.244 716.125 579.625C713.604 580.091 713.604 580.091 711.031 580.566C709.371 580.792 707.711 581.018 706 581.25C702.906 581.353 699.812 581.456 696.625 581.562C694.109 581.459 691.592 581.356 689 581.25C687.02 580.92 685.04 580.59 683 580.25C683.412 581.859 683.825 583.467 684.25 585.125C685.158 587.146 686.065 589.168 687 591.25C687.887 592.797 688.774 594.344 689.688 595.938C690.781 597.361 691.874 598.784 693 600.25C694.444 601.673 695.888 603.096 697.375 604.562C698.901 605.779 700.428 606.996 702 608.25C704.64 609.57 707.28 610.89 710 612.25C708.68 612.91 707.36 613.57 706 614.25C703.69 614.58 701.38 614.91 699 615.25C696.051 615.353 693.101 615.456 690.062 615.562C688.393 615.551 686.724 615.539 685.004 615.527C683.353 615.436 681.701 615.344 680 615.25C677.195 614.714 674.39 614.178 671.5 613.625C669.025 612.841 666.55 612.058 664 611.25C660.999 609.796 660.999 609.796 657.938 608.312C655.493 606.797 655.493 606.797 653 605.25C650.69 603.6 648.38 601.95 646 600.25C645.051 601.591 644.103 602.931 643.125 604.312C642.094 606.272 641.062 608.231 640 610.25C637.742 612.911 637.742 612.911 635.438 615.625C633.973 617.151 632.509 618.678 631 620.25C629.35 621.57 627.7 622.89 626 624.25C625.34 624.25 624.68 624.25 624 624.25C623.34 625.9 622.68 627.55 622 629.25C620.969 631.127 619.938 633.004 618.875 634.938C616.957 638.062 616.957 638.062 615 641.25C613.144 643.725 613.144 643.725 611.25 646.25C609.847 647.9 608.445 649.55 607 651.25C605.102 653.354 603.205 655.457 601.25 657.625C599.518 659.481 597.785 661.337 596 663.25C594.68 664.57 593.36 665.89 592 667.25C591.588 670.179 591.175 673.108 590.75 676.125C590.607 678.077 590.464 680.028 590.316 682.039C590.212 684.419 590.108 686.798 590 689.25C589.927 692.31 589.853 695.37 589.777 698.523C589.748 701.816 589.718 705.108 589.688 708.5C589.671 711.62 589.654 714.739 589.637 717.953C589.757 721.021 589.876 724.089 590 727.25C590.696 732.065 590.696 732.065 591.406 736.977C592.195 741.072 592.195 741.072 593 745.25C593.598 747.601 594.196 749.953 594.812 752.375C595.534 754.314 596.256 756.253 597 758.25C598.98 760.89 600.96 763.53 603 766.25C604.65 768.23 606.3 770.21 608 772.25C609.898 773.673 611.795 775.096 613.75 776.562C616.142 778.109 618.535 779.656 621 781.25C622.539 782.02 624.078 782.789 625.664 783.582C627.219 784.339 628.773 785.095 630.375 785.875C634.149 788.041 634.149 788.041 638 790.25C637.67 792.56 637.34 794.87 637 797.25C636.01 799.23 635.02 801.21 634 803.25C632.02 802.92 630.04 802.59 628 802.25C625.525 801.116 623.05 799.981 620.5 798.812C616.293 796.554 616.293 796.554 612 794.25C609.566 792.662 607.132 791.074 604.625 789.438C602.439 787.726 600.253 786.014 598 784.25C596.185 782.435 594.37 780.62 592.5 778.75C591.015 776.935 589.53 775.12 588 773.25C586.36 770.93 586.36 770.93 584.688 768.562C583.801 766.809 582.914 765.056 582 763.25C581.113 760.878 580.226 758.506 579.312 756.062C578.549 753.154 577.786 750.246 577 747.25C576.517 744.922 576.517 744.922 576.023 742.547C575.748 740.82 575.472 739.092 575.188 737.312C574.935 735.42 574.682 733.528 574.422 731.578C574.283 729.16 574.143 726.742 574 724.25C574.056 722.522 574.112 720.794 574.17 719.014C574.263 717.107 574.357 715.199 574.453 713.234C574.54 711.303 574.628 709.372 574.718 707.382C574.79 705.462 574.863 703.541 574.938 701.562C574.984 699.703 575.031 697.843 575.079 695.926C575.063 694.236 575.048 692.546 575.031 690.805C574.691 688.312 574.351 685.819 574 683.25C571.339 684.219 568.679 685.189 565.938 686.188C563.453 688.39 563.453 688.39 560.918 690.637C559.295 692.159 557.672 693.681 556 695.25C553.608 696.653 551.215 698.055 548.75 699.5C546.193 700.737 543.635 701.975 541 703.25C539.159 703.974 537.318 704.699 535.422 705.445C533.468 706.165 531.513 706.884 529.5 707.625C527.675 708.272 525.849 708.919 523.969 709.586C522.329 710.135 520.689 710.684 519 711.25C516.69 711.91 514.38 712.57 512 713.25C510.68 712.92 509.36 712.59 508 712.25C510.516 710.847 513.033 709.445 515.625 708C518.135 706.65 518.135 706.65 520.695 705.273C522.446 704.276 524.196 703.278 526 702.25C527.606 701.17 529.212 700.09 530.867 698.977C532.396 697.871 533.925 696.765 535.5 695.625C536.989 694.522 538.478 693.418 540.012 692.281C541.328 691.281 542.644 690.281 544 689.25C545.753 687.889 547.506 686.528 549.312 685.125C550.859 683.846 552.406 682.567 554 681.25C556.207 679.414 558.414 677.579 560.688 675.688C562.771 673.893 564.854 672.099 567 670.25C569.31 667.94 571.62 665.63 574 663.25C575.196 662.239 576.393 661.229 577.625 660.188C579.069 658.888 580.513 657.589 582 656.25C585.156 653.002 585.156 653.002 588.375 649.688C590.561 647.233 592.747 644.779 595 642.25C596.753 639.981 598.506 637.713 600.312 635.375C601.859 633.024 603.406 630.672 605 628.25C606.341 625.919 607.681 623.589 609.062 621.188C610.362 618.238 611.661 615.289 613 612.25C614.096 609.112 614.096 609.112 615.215 605.91C616.346 602.366 616.346 602.366 617.5 598.75C618.252 596.284 619.003 593.818 619.777 591.277C620.511 588.628 621.244 585.979 622 583.25C622.682 580.261 623.364 577.271 624.066 574.191C624.725 571.261 625.384 568.331 626.062 565.312C626.631 562.581 627.199 559.849 627.785 557.035C628.516 555.126 629.247 553.217 630 551.25C632.64 551.91 635.28 552.57 638 553.25C640.64 552.92 643.28 552.59 646 552.25C646.282 552.089 648.5 599.25 648.5 599.25H650C650 599.25 647.666 551.298 648 551.107C649.648 550.165 651.306 549.218 653 548.25C655.97 544.785 655.97 544.785 659 541.25C659.969 539.559 660.939 537.867 661.938 536.125C662.618 534.516 663.299 532.908 664 531.25C663.67 529.6 663.34 527.95 663 526.25C661.989 525.116 660.979 523.981 659.938 522.812C658.638 521.307 657.339 519.801 656 518.25C654.639 516.023 653.278 513.795 651.875 511.5C650.596 509.108 649.317 506.715 648 504.25C647.113 502.394 646.226 500.538 645.312 498.625C644.549 496.521 643.786 494.418 643 492.25C641.763 488.012 641.763 488.012 640.5 483.688C640.086 481.949 639.672 480.21 639.246 478.418C638.835 476.383 638.424 474.347 638 472.25C637.599 469.812 637.198 467.375 636.785 464.863C636.382 462.103 635.978 459.344 635.562 456.5C635.158 453.534 634.753 450.568 634.336 447.512C634.124 445.897 633.912 444.282 633.694 442.619C633.465 440.847 633.236 439.075 633 437.25C632.735 435.199 632.47 433.147 632.196 431.034C631.918 428.863 631.639 426.693 631.352 424.457C631.075 422.28 630.798 420.103 630.513 417.86C630.241 415.7 629.968 413.539 629.688 411.312C629.421 409.194 629.154 424.076 628.879 421.894C628.634 419.919 628.389 417.945 628.137 415.91C627.574 411.128 627.574 411.128 627 406.25C627 404.93 627 403.61 627 402.25C624.773 401.673 622.545 401.095 620.25 400.5C615.671 399.386 615.671 399.386 611 398.25C609.4 397.696 607.801 397.141 606.152 396.57C603.695 395.607 603.695 395.607 601.188 394.625C599.505 393.928 597.823 393.23 596.09 392.512C594.41 391.765 592.731 391.019 591 390.25C589.372 389.473 587.744 388.695 586.066 387.895C584.477 387.084 582.888 386.273 581.25 385.438C579.695 384.594 578.141 383.751 576.539 382.883C575.041 382.014 573.543 381.145 572 380.25C569.236 378.456 566.473 376.661 563.625 374.812C561.109 372.977 558.592 371.141 556 369.25C553.69 367.352 551.38 365.455 549 363.5C547.02 361.768 545.04 360.035 543 358.25C541.701 357.157 540.401 356.064 539.062 354.938C537.722 353.721 536.381 352.504 535 351.25C532.711 349.023 530.421 346.795 528.062 344.5C526.869 343.308 525.675 342.115 524.445 340.887C523.308 339.687 522.171 338.486 521 337.25C518.247 333.816 518.247 333.816 515.438 330.312C514.303 328.972 513.169 327.631 512 326.25C512.99 329.22 513.98 332.19 515 335.25C516.011 337.292 517.021 339.334 518.062 341.438C519.362 343.686 520.661 345.934 522 348.25C524.351 351.746 524.351 351.746 526.75 355.312C528.482 357.602 530.215 359.891 532 362.25C533.98 364.457 535.96 366.664 538 368.938C539.65 370.691 541.3 372.444 543 374.25C543.66 375.24 544.32 376.23 545 377.25C542.821 376.999 542.821 376.999 540.598 376.742C538.42 376.25 536.243 375.757 534 375.25C531.565 374.531 529.13 373.811 526.621 373.07C523.921 372.181 521.22 371.291 518.438 370.375C515.522 369.385 512.606 368.395 509.602 367.375C506.763 366.344 503.925 365.312 501 364.25C498.636 363.281 496.272 362.311 493.836 361.312C491.683 360.343 489.53 359.374 487.312 358.375C485.241 357.38 483.169 356.385 481.035 355.359C479.044 354.333 477.052 353.307 475 352.25C473.019 351.162 471.037 350.074 468.996 348.953C467.1 347.855 465.204 346.757 463.25 345.625C461.472 344.543 459.695 343.462 457.863 342.348C456.258 341.325 454.654 340.303 453 339.25C450.504 337.538 448.009 335.826 445.438 334.062C442.251 331.68 442.251 331.68 439 329.25C435.504 326.589 435.504 326.589 431.938 323.875C429.978 322.349 428.019 320.822 426 319.25C424.35 317.93 422.7 316.61 421 315.25C421.701 316.426 422.402 317.601 423.125 318.812C424.404 320.607 425.683 322.401 427 324.25C428.258 325.9 429.516 327.55 430.812 329.25C432.524 331.23 434.236 333.21 436 335.25C437.299 336.624 438.599 337.998 439.938 339.414C441.381 340.886 442.825 342.358 444.312 343.875C445.769 345.321 447.226 346.768 448.727 348.258C450.137 349.575 451.547 350.893 453 352.25C456.558 354.973 456.558 354.973 460.188 357.75C462.57 359.482 462.57 359.482 465 361.25C464.34 361.58 463.68 361.91 463 362.25C460.925 361.571 460.925 361.571 458.809 360.879C457.036 360.197 455.264 359.515 453.438 358.812C451.534 358.069 449.63 357.325 447.668 356.559C445.798 355.797 443.927 355.035 442 354.25C437.669 352.332 437.669 352.332 433.25 350.375C430.527 349.014 427.805 347.653 425 346.25C422.133 344.641 419.266 343.033 416.312 341.375C413.569 339.684 410.826 337.992 408 336.25C405.566 334.579 403.132 332.909 400.625 331.188C398.439 329.558 396.253 327.929 394 326.25C392.102 324.744 390.205 323.239 388.25 321.688C386.518 320.223 384.785 318.759 383 317.25C381.391 315.847 379.783 314.445 378.125 313C376.434 311.433 374.742 309.865 373 308.25C370.814 306.126 368.628 304.001 366.375 301.812C364.271 299.647 362.168 297.481 360 295.25C358.556 293.27 357.112 291.29 355.625 289.25C354.429 287.93 353.232 286.61 352 285.25C349.69 286.24 347.38 287.23 345 288.25C343.02 289.9 341.04 291.55 339 293.25C338.072 294.735 337.144 296.22 336.188 297.75C335.466 299.235 334.744 300.72 334 302.25C333.67 303.9 333.34 305.55 333 307.25C333 309.56 333 311.87 333 314.25C333.516 316.312 334.031 318.375 334.562 320.5C335.769 323.841 335.769 323.841 337 327.25C338.516 330.096 338.516 330.096 340.062 333C341.362 334.732 342.661 336.465 344 338.25C345.671 339.817 347.341 341.385 349.062 343C352.002 345.104 352.002 345.104 355 347.25C358.31 349.137 358.31 349.137 361.688 351.062C364.101 352.114 366.514 353.166 369 354.25C371.537 355.034 374.074 355.817 376.688 356.625C380.802 357.429 380.802 357.429 385 358.25C386.775 358.379 388.55 358.508 390.379 358.641C392.151 358.718 393.924 358.795 395.75 358.875C399.834 359.061 399.834 359.061 404 359.25C402.02 360.24 402.02 360.24 400 361.25C397.773 361.807 397.773 361.807 395.5 362.375C392.283 362.808 392.283 362.808 389 363.25C385.803 363.374 382.606 363.498 379.312 363.625C377.581 363.602 375.85 363.579 374.066 363.555C372.394 363.454 370.723 363.354 369 363.25C364.916 362.507 364.916 362.507 360.75 361.75C358.193 360.925 355.635 360.1 353 359.25C350.277 358.074 347.555 356.899 344.75 355.688C342.193 354.223 339.635 352.759 337 351.25C334.834 349.456 332.669 347.661 330.438 345.812C328.643 343.977 326.849 342.141 325 340.25C322.834 337.342 322.834 337.342 320.625 334.375C319.759 333.344 318.892 332.312 318 331.25C318.062 332.591 318.124 333.931 318.188 335.312C318.786 337.602 319.384 339.891 320 342.25C320.887 344.601 321.774 346.953 322.688 349.375C323.781 351.644 324.874 353.912 326 356.25C327.114 357.859 328.227 359.467 329.375 361.125C330.571 362.486 331.768 363.847 333 365.25C334.217 366.611 335.434 367.972 336.688 369.375C338.822 371.293 338.822 371.293 341 373.25C343.207 374.549 345.414 375.849 347.688 377.188C349.441 378.198 351.194 379.209 353 380.25C352.01 380.58 351.02 380.91 350 381.25C347.999 380.569 345.999 379.889 343.938 379.188C341.648 378.218 339.359 377.249 337 376.25C335.288 375.342 333.576 374.435 331.812 373.5C330.224 372.428 328.636 371.355 327 370.25C325.309 368.868 323.617 367.486 321.875 366.062C319.462 363.68 319.462 363.68 317 361.25C315.597 359.497 314.195 357.744 312.75 355.938C311.513 354.061 310.275 352.184 309 350.25C307.886 347.94 306.773 345.63 305.625 343.25C304.759 341.6 303.892 339.95 303 338.25C302.34 339.9 301.68 341.55 301 343.25C300.367 346.461 299.734 349.672 299.082 352.98C298.734 354.956 298.385 356.931 298.026 358.966C297.687 361.04 297.349 363.114 297 365.25C296.714 367.23 296.429 369.209 296.134 371.249C295.867 373.266 295.6 375.284 295.324 377.363C294.923 380.549 294.923 380.549 294.514 383.799C294.241 386.031 293.968 388.263 293.688 390.562C293.395 392.938 293.102 395.313 292.801 397.76C292.498 400.248 292.195 402.737 291.883 405.301C291.576 407.875 291.27 410.448 290.954 413.1C290.482 417.134 290.482 417.134 290 421.25C289.67 424.113 289.339 409.977 288.999 412.927C288.667 415.853 288.335 418.779 287.992 421.793C287.669 424.701 287.346 427.61 287.013 430.606C286.699 433.459 286.386 436.311 286.062 439.25C285.603 443.369 285.603 443.369 285.134 447.572C284.854 450.167 284.574 452.763 284.285 455.438C284.043 457.867 283.801 460.296 283.551 462.799C283.369 464.928 283.187 467.057 283 469.25C282.845 473.655 282.845 473.655 282.688 478.148C282.791 480.492 282.894 482.835 283 485.25C283.277 487.862 283.554 490.473 283.84 493.164C284.202 495.709 284.564 498.253 284.938 500.875C285.297 503.445 285.657 506.016 286.027 508.664C286.348 510.837 286.669 513.011 287 515.25C287.33 517.23 287.66 519.21 288 521.25C286.35 519.6 284.7 517.95 283 516.25C281.618 514.064 280.236 511.878 278.812 509.625C277.554 507.521 276.296 505.418 275 503.25C274.01 501.765 274.01 501.765 273 500.25C271.948 502.601 270.896 504.953 269.812 507.375C268.554 510.304 267.296 513.233 266 516.25C264.68 518.271 263.36 520.293 262 522.375C261.01 523.984 260.02 525.592 259 527.25C259.33 529.23 259.66 531.21 260 533.25C261.031 535.23 262.062 537.21 263.125 539.25C264.404 541.23 265.683 543.21 267 545.25C269.31 547.23 271.62 549.21 274 551.25C274.282 552.899 274.564 554.547 274.855 556.246C274.847 558.183 274.84 560.121 274.832 562.117C274.846 564.218 274.859 566.32 274.873 568.484C274.853 570.676 274.833 572.867 274.812 575.125C274.812 578.447 274.812 578.447 274.811 581.836C274.818 583.929 274.825 586.023 274.832 588.18C274.819 590.111 274.806 592.041 274.792 594.031C274.861 595.423 274.929 596.815 275 598.25C275.66 598.25 276.32 598.25 277 598.25C277.066 593.377 277.066 593.377 277.133 588.406C277.135 586.376 277.138 584.346 277.141 582.254C277.133 579.034 277.133 579.034 277.125 575.75C277.097 573.604 277.068 571.457 277.039 569.246C277.049 567.216 277.06 565.186 277.07 563.094C277.531 558.221 277.531 558.221 278 553.25C280.64 553.25 283.28 553.25 286 553.25C288.31 552.59 290.62 551.93 293 551.25C293.66 553.23 294.32 555.21 295 557.25C295.621 559.775 296.243 562.301 296.883 564.902C297.993 569.498 297.993 569.498 299.125 574.188C299.523 575.801 299.921 577.415 300.332 579.078C300.941 581.499 300.941 581.499 301.562 583.969C302.769 588.563 302.769 588.563 304 593.25C304.701 595.57 305.402 597.891 306.125 600.281C306.785 602.23 307.445 604.179 308.125 606.188C308.779 607.966 309.432 609.745 310.105 611.578C310.731 613.12 311.356 614.662 312 616.25C313.134 618.622 314.269 620.994 315.438 623.438C316.613 625.356 317.789 627.274 319 629.25C321.104 632.251 321.104 632.251 323.25 635.312C325.601 638.252 325.601 638.252 328 641.25C329.629 643.106 331.259 644.962 332.938 646.875C334.938 648.979 336.939 651.082 339 653.25C340.424 654.716 341.849 656.181 343.316 657.691C344.862 659.258 346.408 660.824 348 662.438C349.552 663.979 351.104 665.521 352.703 667.109C354.121 668.476 355.539 669.842 357 671.25C358.898 672.879 360.795 674.509 362.75 676.188C364.482 677.528 366.215 678.869 368 680.25C370.186 682.003 372.372 683.756 374.625 685.562C377.059 687.439 379.493 689.316 382 691.25C383.344 692.257 384.689 693.264 386.074 694.301C387.473 695.315 388.871 696.33 390.312 697.375C391.715 698.364 393.117 699.352 394.562 700.371C396.027 701.321 397.491 702.271 399 703.25C400.65 704.148 402.3 705.047 404 705.973C405.588 706.786 407.176 707.599 408.812 708.438C411.184 709.696 413.556 710.954 416 712.25C414.68 712.58 413.36 712.91 412 713.25C409.463 712.59 406.926 711.93 404.312 711.25C399.703 709.765 399.703 709.765 395 708.25C392.133 707.157 389.266 706.064 386.312 704.938C383.569 703.721 380.826 702.504 378 701.25C375.669 700.013 373.339 698.775 370.938 697.5C368.648 696.097 366.359 694.695 364 693.25C362.528 692.241 361.056 691.231 359.539 690.191C358.062 689.159 356.585 688.126 355.062 687.062C352.732 685.474 350.401 683.886 348 682.25C348.33 683.24 348.66 684.23 349 685.25C349.067 688.291 349.134 691.332 349.203 694.465C349.219 697.293 349.219 697.293 349.234 700.178C349.242 703.153 349.242 703.153 349.25 706.188C349.281 709.064 349.281 709.064 349.312 711.998C349.32 714.859 349.32 714.859 349.328 717.777C349.305 719.682 349.281 721.586 349.257 723.549C349.172 725.43 349.087 727.312 349 729.25C348.795 731.122 348.59 732.994 348.378 734.922C348.121 736.691 347.863 738.459 347.598 740.281C346.807 744.721 346.807 744.721 346 749.25C345.402 751.416 344.804 753.581 344.188 755.812C343.466 757.607 342.744 759.401 342 761.25C341.113 763.106 340.226 764.962 339.312 766.875C338.219 768.649 337.126 770.423 336 772.25C334.556 773.982 333.112 775.715 331.625 777.5C329.336 779.851 329.336 779.851 327 782.25C325.237 783.982 325.237 783.982 323.438 785.75C321.241 787.482 321.241 787.482 319 789.25C316.401 790.962 313.803 792.674 311.125 794.438C307.103 796.82 307.103 796.82 303 799.25C301.102 800.116 299.205 800.983 297.25 801.875C295.847 802.329 294.445 802.782 293 803.25C291.68 803.25 290.36 803.25 289 803.25C288.175 801.518 287.35 799.785 286.5 798C286.005 796.102 285.51 794.205 285 792.25C286.32 790.93 287.64 789.61 289 788.25C291.681 786.847 294.362 785.445 297.125 784C298.642 783.211 300.159 782.422 301.723 781.609C303.134 780.831 304.546 780.052 306 779.25C307.836 777.93 309.671 776.61 311.562 775.25C313.027 773.93 314.491 772.61 316 771.25C317.444 769.765 318.888 768.28 320.375 766.75C321.571 765.265 322.768 763.78 324 762.25C325.32 759.61 326.64 756.97 328 754.25C328.701 751.816 329.402 749.382 330.125 746.875C330.744 744.029 331.363 741.182 332 738.25C332.412 735.383 332.825 732.516 333.25 729.562C333.621 724.953 333.621 724.953 334 720.25C334.083 717.053 334.165 713.856 334.25 710.562C334.22 708.829 334.191 707.095 334.16 705.309C334.081 702.31 334.081 702.31 334 699.25C333.978 696.663 333.956 694.076 333.934 691.41C333.852 688.676 333.771 685.942 333.688 683.125C333.507 680.477 333.327 677.83 333.141 675.102C332.576 671.71 332.576 671.71 332 668.25C330.329 666.023 328.659 663.795 326.938 661.5C324.978 660.097 323.019 658.695 321 657.25C319.433 655.414 317.865 653.579 316.25 651.688C314.847 649.893 313.445 648.099 312 646.25C310.68 644.414 309.36 642.579 308 640.688C306.515 638.491 306.515 638.491 305 636.25C304.67 635.59 304.34 634.93 304 634.25C301.896 633.528 299.793 632.806 297.625 632.062C293.851 630.67 293.851 630.67 290 629.25C288.041 628.136 286.081 627.023 284.062 625.875C282.392 624.679 280.721 623.482 279 622.25C276.69 619.94 274.38 617.63 272 615.25C270.907 613.497 269.814 611.744 268.688 609.938C267.801 608.391 266.914 606.844 266 605.25C265.34 604.59 264.68 603.93 264 603.25C263.67 604.9 263.34 606.55 263 608.25C262.938 610.766 262.876 613.283 262.812 615.875C262.544 617.979 262.276 620.082 262 622.25C260.02 620.6 258.04 618.95 256 617.25C254.618 615.064 253.236 612.878 251.812 610.625C250.554 608.191 249.296 605.757 248 603.25C247.361 601.352 246.721 599.455 246.062 597.5C245.712 595.768 245.361 594.035 245 592.25C244.979 590.249 244.959 588.249 244.938 586.188C244.628 584.888 244.319 583.589 244 582.25C242.494 582.993 240.989 583.735 239.438 584.5C237.643 585.737 235.849 586.975 234 588.25C231.36 588.91 228.72 589.57 226 590.25C223.752 590.394 221.504 590.539 219.188 590.688C217.476 590.543 215.764 590.399 214 590.25C215.65 588.6 217.3 586.95 219 585.25C220.65 583.6 222.3 581.95 224 580.25C225.093 579.013 226.186 577.775 227.312 576.5C228.529 574.768 229.746 573.035 231 571.25C231.781 569.787 232.562 568.324 233.367 566.816C234.516 564.463 234.516 564.463 235.688 562.062C236.781 559.484 237.874 556.906 239 554.25C237.68 554.91 236.36 555.57 235 556.25C233.453 557.219 231.906 558.189 230.312 559.188C228.559 560.198 226.806 561.209 225 562.25C222.03 563.24 219.06 564.23 216 565.25C214.02 565.58 212.04 565.91 210 566.25C207.484 566.333 204.967 566.415 202.375 566.5C199.611 566.417 196.848 566.335 194 566.25C191.958 565.899 189.916 565.549 187.812 565.188C185.894 564.548 183.976 563.909 182 563.25C178.752 561.703 178.752 561.703 175.438 560.125C172.251 558.207 172.251 558.207 169 556.25C167.102 554.847 165.205 553.445 163.25 552C161.518 550.433 159.785 548.865 158 547.25C156.371 545.373 154.741 543.496 153.062 541.562C151.052 538.933 151.052 538.933 149 536.25C147.68 534.27 146.36 532.29 145 530.25C145.33 529.59 145.66 528.93 146 528.25C148.661 528.931 148.661 528.931 151.375 529.625C153.891 530.161 156.408 530.697 159 531.25C162.156 531.374 165.311 531.498 168.562 531.625C171.677 531.501 174.791 531.377 178 531.25C180.227 530.817 182.455 530.384 184.75 529.938C187.349 529.102 187.349 529.102 190 528.25C193.465 526.765 193.465 526.765 197 525.25C194.618 524.384 194.618 524.384 192.188 523.5C188.63 522.386 188.63 522.386 185 521.25C182.917 520.157 180.834 519.064 178.688 517.938C176.811 516.721 174.934 515.504 173 514.25C170.69 511.94 168.38 509.63 166 507.25C164.515 505.023 163.03 502.795 161.5 500.5C160.345 498.438 159.19 496.375 158 494.25C158.33 493.26 158.66 492.27 159 491.25C162.187 491.312 162.187 491.312 165.438 491.375C169.181 491.313 169.181 491.313 173 491.25C174.794 490.549 176.589 489.848 178.438 489.125C179.943 488.176 181.449 487.228 183 486.25C185.31 484.27 187.62 482.29 190 480.25C187.958 480.188 185.916 480.126 183.812 480.062C179.45 480.155 179.45 480.155 175 480.25C172.649 479.899 170.297 479.549 167.875 479.188C165.606 478.548 163.338 477.909 161 477.25C157.721 475.765 157.721 475.765 154.375 474.25C152.271 472.93 150.168 471.61 148 470.25C145.814 468.373 143.628 466.496 141.375 464.562C138.714 461.933 138.714 461.933 136 459.25C135.01 457.93 134.02 456.61 133 455.25C135.97 455.25 138.94 455.25 142 455.25C144.782 455.3 144.782 455.3 147.621 455.352C149.396 455.318 151.171 455.285 153 455.25C155.331 454.714 157.661 454.178 160.062 453.625C162.022 452.841 163.981 452.058 166 451.25C167.836 450.404 169.671 449.559 171.562 448.688C173.357 447.553 175.151 446.419 177 445.25C179.042 443.518 181.084 441.785 183.188 440C185.106 438.102 187.024 436.205 189 434.25C190.341 432.806 191.681 431.362 193.062 429.875C195.012 427.091 195.012 427.091 197 424.25C197.898 422.711 198.797 421.172 199.723 419.586C200.68 417.825 201.638 416.064 202.625 414.25C203.558 412.411 204.492 427.571 205.453 425.676C206.294 423.885 207.134 422.095 208 420.25C209.114 417.342 210.227 414.434 211.375 411.438C212.241 408.406 213.108 405.374 214 402.25C214.461 400.374 214.923 398.499 215.398 396.566C215.844 394.564 216.29 392.563 216.75 390.5C217.153 388.463 217.557 386.427 217.973 384.328C218.312 382.322 218.651 380.317 219 378.25C219.226 376.409 219.451 374.568 219.684 372.672C219.85 370.883 220.016 369.093 220.188 367.25C220.329 365.445 220.471 363.641 220.617 361.781C220.807 359.043 220.807 359.043 221 356.25C221.126 354.383 221.253 352.517 221.383 350.594C221.525 348.665 221.666 346.737 221.812 344.75C221.98 342.758 222.148 340.767 222.32 338.715C222.545 336.581 222.769 334.448 223 332.25C223.327 329.838 223.655 327.426 223.992 324.941C224.584 321.165 224.584 321.165 225.188 317.312C225.631 314.785 226.074 312.257 226.531 309.652C227.016 307.21 227.501 304.767 228 302.25C228.758 298.973 228.758 298.973 229.531 295.629C230.078 293.565 230.624 291.501 231.188 289.375C231.78 287.371 232.373 285.366 232.984 283.301C233.65 281.304 234.315 279.307 235 277.25C235.789 275.14 236.578 273.03 237.391 270.855C238.231 268.779 239.072 266.702 239.938 264.562C240.791 262.594 241.644 260.626 242.523 258.598C243.341 256.833 244.158 255.068 245 253.25C246.341 250.693 247.681 248.135 249.062 245.5C250.362 243.438 251.661 241.375 253 239.25C254.444 237.208 255.888 235.166 257.375 233.062C258.901 231.144 260.428 229.226 262 227.25C263.547 225.414 265.094 223.579 266.688 221.688C268.441 219.893 270.194 218.099 272 216.25C274.269 214.352 276.537 212.455 278.875 210.5C281.226 208.768 283.578 207.035 286 205.25C288.001 203.971 290.001 202.692 292.062 201.375C294.022 200.344 295.981 199.312 298 198.25C300.207 197.549 302.414 196.848 304.688 196.125C306.771 195.176 308.854 194.228 311 193.25C312.567 191.208 314.135 189.166 315.75 187.062C317.854 183.69 317.854 183.69 320 180.25C321.506 178.497 323.011 176.744 324.562 174.938C326.027 173.391 327.491 171.844 329 170.25C330.217 168.93 331.434 167.61 332.688 166.25C334.111 164.93 335.534 163.61 337 162.25C339.145 160.621 341.29 158.991 343.5 157.312C345.975 155.642 348.45 153.971 351 152.25C353.578 150.703 356.156 149.156 358.812 147.562C361.514 146.139 364.216 144.716 367 143.25C369.723 142.033 372.445 140.816 375.25 139.562C378.138 138.469 381.025 137.376 384 136.25C385.555 135.714 387.109 135.178 388.711 134.625C390.333 134.109 391.954 133.594 393.625 133.062C395.287 132.58 396.948 132.098 398.66 131.602C401.303 130.933 401.303 130.933 404 130.25C406.968 129.643 406.968 129.643 409.996 129.023C411.998 128.665 414 128.307 416.062 127.938C417.889 127.632 419.716 127.326 421.598 127.012C423.38 126.76 425.163 126.509 427 126.25C428.707 126.055 430.413 125.861 432.172 125.66C434.095 125.525 436.018 125.389 438 125.25Z" fill="#4A2C4A"/>
</svg>
